<svg id="Capa_1" enable-background="new 0 0 512 512" height="512" viewBox="0 0 512 512" width="512" xmlns="http://www.w3.org/2000/svg"><path d="m484.733 335.778h-3.987c.054-.113.107-.227.159-.34 1.609-3.515 2.409-7.267 2.377-11.152-.118-14.366-12.1-26.054-26.709-26.054h-24.336v-48.391l16.128-11.338c8.174-5.747 13.054-15.143 13.054-25.134v-38.423c0-4.142-3.357-7.5-7.5-7.5s-7.5 3.358-7.5 7.5v38.423c0 5.113-2.497 9.922-6.681 12.863l-19.315 13.578c-1.998 1.404-3.186 3.694-3.186 6.136v52.286h-80.027l13.592-36.281c2.674-7.139 2.229-15.132-1.221-21.93-3.448-6.798-9.636-11.877-16.975-13.934-6.761-1.898-13.875.421-18.233 5.778l-74.902-46.314c-.845-.601-1.222-1.661-.94-2.665.94-3.356 3.171-6.073 6.279-7.649 3.105-1.577 6.616-1.772 9.88-.549l46.412 17.386c2.302.862 4.883.542 6.904-.86 2.021-1.401 3.227-3.704 3.227-6.164v-130.181c0-6.406 5.015-11.658 11.178-11.709 1.697-.006 3.282.328 4.783 1.016 2.029.929 3.726 2.427 4.905 4.333 1.1 1.773 1.681 3.822 1.681 5.925v63.482c0 4.142 3.357 7.5 7.5 7.5s7.5-3.358 7.5-7.5v-63.483-27.724c0-6.406 5.014-11.659 11.176-11.709 1.653-.013 3.283.328 4.784 1.015 4.001 1.833 6.587 5.859 6.587 10.258v28.16 63.482c0 4.142 3.357 7.5 7.5 7.5s7.5-3.358 7.5-7.5v-63.482c0-6.216 5.057-11.273 11.272-11.273 1.64 0 3.216.342 4.688 1.016 4.001 1.833 6.586 5.859 6.586 10.257v28.16 35.321c0 4.142 3.357 7.5 7.5 7.5s7.5-3.358 7.5-7.5v-35.321c0-6.099 4.958-11.156 11.053-11.271 2.931-.03 5.737 1.089 7.912 3.223 2.276 2.233 3.582 5.321 3.582 8.471v59.244c0 4.142 3.357 7.5 7.5 7.5s7.5-3.358 7.5-7.5v-59.244c0-7.152-2.943-14.142-8.076-19.178-5.073-4.978-11.701-7.651-18.703-7.514-3.842.073-7.489.987-10.768 2.564v-4.456c0-10.248-6.021-19.627-15.338-23.894-3.445-1.579-7.124-2.379-10.936-2.379-4.032 0-7.854.913-11.272 2.543v-4.429c0-10.247-6.021-19.627-15.341-23.896-3.512-1.608-7.286-2.399-11.153-2.377-14.366.119-26.054 12.1-26.054 26.709v3.987c-.112-.054-.225-.106-.338-.158-3.513-1.61-7.25-2.443-11.154-2.378-14.366.117-26.055 12.099-26.055 26.708v22.895h-45.833l-11.339-16.128c-5.747-8.173-15.143-13.053-25.134-13.053h-130.353c-7.152 0-14.142 2.944-19.178 8.077-4.978 5.073-7.646 11.715-7.514 18.702.073 3.842.987 7.489 2.564 10.768h-4.455c-10.247 0-19.627 6.021-23.896 15.338-1.578 3.443-2.378 7.123-2.378 10.936 0 4.032.913 7.855 2.543 11.273h-4.43c-10.247 0-19.626 6.021-23.896 15.341-1.608 3.512-2.407 7.263-2.377 11.152.119 14.366 12.101 26.054 26.709 26.054h3.987c-.054.113-.107.227-.159.341-1.609 3.515-2.409 7.267-2.377 11.151.118 14.366 12.1 26.054 26.709 26.054h24.336v48.391l-16.127 11.337c-8.175 5.747-13.055 15.143-13.055 25.135v130.353c0 7.152 2.943 14.142 8.076 19.178 5.073 4.979 11.681 7.666 18.703 7.514 3.842-.073 7.489-.987 10.768-2.565v4.456c0 10.248 6.021 19.627 15.338 23.894 3.445 1.579 7.124 2.379 10.936 2.379 4.032 0 7.855-.913 11.273-2.543v4.43c0 10.247 6.021 19.627 15.34 23.896 3.445 1.579 7.121 2.378 10.928 2.378h.225c14.366-.118 26.054-12.099 26.054-26.709v-3.987c.112.054.225.106.338.158 3.514 1.61 7.264 2.395 11.154 2.379 14.366-.118 26.055-12.099 26.055-26.708v-22.894h45.833l11.339 16.128c5.746 8.173 15.142 13.053 25.134 13.054h24.782c4.143 0 7.5-3.358 7.5-7.5s-3.357-7.5-7.5-7.5h-24.782c-5.113-.001-9.922-2.498-12.863-6.681l-13.578-19.314c-1.404-1.997-3.693-3.186-6.136-3.186h-49.728v-81.469l36.281 13.591c7.138 2.674 15.132 2.23 21.929-1.219 6.798-3.449 11.877-9.636 13.936-16.977 2.024-7.222-.756-14.848-6.917-19.085l44.895-72.609c.601-.845 1.663-1.222 2.665-.94 3.355.94 6.071 3.17 7.648 6.278s1.772 6.618.55 9.882l-17.387 46.411c-.862 2.303-.541 4.883.859 6.904 1.401 2.022 3.705 3.227 6.164 3.227h130.182c6.406 0 11.659 5.014 11.709 11.177.014 1.672-.328 3.282-1.015 4.783-.93 2.029-2.428 3.726-4.334 4.907-1.772 1.099-3.821 1.68-5.925 1.68h-63.48c-4.143 0-7.5 3.358-7.5 7.5s3.357 7.5 7.5 7.5h63.48 27.725c6.405 0 11.658 5.015 11.709 11.175.014 1.675-.328 3.285-1.015 4.785-1.833 4.001-5.86 6.587-10.259 6.587h-28.16-63.48c-4.143 0-7.5 3.358-7.5 7.5s3.357 7.5 7.5 7.5h63.48c6.216 0 11.273 5.057 11.273 11.273 0 1.641-.341 3.217-1.015 4.687-1.833 4.001-5.86 6.587-10.259 6.587h-28.157-35.321c-4.143 0-7.5 3.358-7.5 7.5s3.357 7.5 7.5 7.5h35.321c6.1 0 11.155 4.958 11.271 11.053.056 2.927-1.089 5.737-3.223 7.912-2.233 2.276-5.32 3.582-8.471 3.582h-72.885c-4.143 0-7.5 3.358-7.5 7.5s3.357 7.5 7.5 7.5h72.885c7.151 0 14.142-2.944 19.178-8.077 4.979-5.073 7.647-11.715 7.514-18.702-.073-3.842-.987-7.49-2.564-10.768h4.455c10.247 0 19.627-6.021 23.896-15.338 1.578-3.443 2.378-7.123 2.378-10.936 0-4.032-.913-7.855-2.543-11.273h4.43c10.247 0 19.627-6.021 23.896-15.341 1.608-3.512 2.407-7.263 2.377-11.152-.121-14.371-12.102-26.059-26.711-26.059zm-441.015-148.188c-.014-1.672.328-3.282 1.015-4.782.93-2.029 2.428-3.726 4.333-4.906 1.774-1.099 3.822-1.68 5.926-1.68h63.48c4.143 0 7.5-3.358 7.5-7.5s-3.357-7.5-7.5-7.5h-63.48-27.725c-6.405 0-11.658-5.014-11.709-11.175-.014-1.675.328-3.286 1.015-4.785 1.833-4.002 5.86-6.587 10.259-6.587h28.16 63.48c4.143 0 7.5-3.358 7.5-7.5s-3.357-7.5-7.5-7.5h-63.48c-6.216 0-11.273-5.057-11.273-11.273 0-1.641.341-3.217 1.015-4.687 1.833-4.001 5.86-6.587 10.259-6.587h28.157 35.321c4.143 0 7.5-3.358 7.5-7.5s-3.357-7.5-7.5-7.5h-35.321c-6.1 0-11.155-4.958-11.271-11.052-.056-2.928 1.089-5.737 3.223-7.912 2.233-2.276 5.32-3.582 8.471-3.582h130.354c5.113 0 9.922 2.498 12.863 6.681l13.578 19.314c1.404 1.998 3.693 3.187 6.136 3.187h49.728v81.469l-36.281-13.591c-7.137-2.673-15.131-2.229-21.929 1.219-6.798 3.449-11.877 9.637-13.936 16.977-2.024 7.222.757 14.848 6.917 19.085l-44.895 72.609c-.6.845-1.661 1.223-2.665.94-3.355-.94-6.071-3.17-7.648-6.278s-1.772-6.618-.55-9.882l17.387-46.412c.862-2.303.542-4.883-.859-6.904s-3.705-3.227-6.164-3.227h-130.182c-6.407-.001-11.659-5.015-11.709-11.179zm229.752 141.524c-.94 3.356-3.171 6.073-6.279 7.649-3.105 1.576-6.615 1.772-9.88.549l-46.412-17.386c-2.304-.863-4.884-.541-6.904.86-2.021 1.401-3.227 3.704-3.227 6.164v130.182c0 6.406-5.015 11.658-11.178 11.709-.033 0-.065 0-.098 0-1.639 0-3.214-.341-4.686-1.016-2.029-.93-3.726-2.427-4.905-4.331-1.1-1.774-1.681-3.823-1.681-5.926v-63.482c0-4.142-3.357-7.5-7.5-7.5s-7.5 3.358-7.5 7.5v63.482 27.724c0 6.406-5.014 11.659-11.177 11.709-.033 0-.065 0-.098 0-1.638 0-3.214-.341-4.686-1.016-4.001-1.833-6.586-5.859-6.586-10.258v-28.16-63.482c0-4.142-3.357-7.5-7.5-7.5s-7.5 3.358-7.5 7.5v63.482c0 6.216-5.058 11.273-11.273 11.273-1.64 0-3.216-.342-4.688-1.016-4.001-1.832-6.586-5.859-6.586-10.257v-28.16-35.321c0-4.142-3.357-7.5-7.5-7.5s-7.5 3.358-7.5 7.5v35.321c0 6.099-4.958 11.156-11.053 11.271-2.929.04-5.737-1.089-7.912-3.223-2.276-2.233-3.582-5.321-3.582-8.471v-130.353c0-5.114 2.498-9.923 6.682-12.864l19.313-13.578c1.998-1.405 3.187-3.694 3.187-6.136v-52.286h80.027l-13.592 36.281c-2.674 7.139-2.229 15.132 1.221 21.93 3.448 6.798 9.636 11.876 16.975 13.934 1.574.442 3.168.655 4.742.655 5.185 0 10.149-2.323 13.492-6.432l20.989 12.977c1.229.76 2.591 1.122 3.938 1.122 2.513 0 4.968-1.263 6.386-3.557 2.179-3.523 1.089-8.145-2.435-10.323l-20.861-12.898 38.104-61.626 62.607 38.711-38.104 61.626-13.943-8.621c-3.521-2.179-8.146-1.089-10.323 2.435-2.179 3.523-1.089 8.145 2.435 10.323l26.109 16.144c.846.602 1.223 1.662.942 2.666z"/></svg>